<?xml version="1.0" encoding="UTF-8"?>
<svg xmlns="http://www.w3.org/2000/svg" width="5200" height="3600" viewBox="0 0 5200 3600">
<defs>
  <linearGradient id="bg" x1="0" y1="0" x2="1" y2="1"><stop offset="0" stop-color="#f6fbff"/><stop offset="0.55" stop-color="#ffffff"/><stop offset="1" stop-color="#fffaf2"/></linearGradient>
  <filter id="shadow" x="-15%" y="-15%" width="130%" height="130%"><feDropShadow dx="0" dy="10" stdDeviation="14" flood-color="#16324f" flood-opacity="0.10"/></filter>
  <filter id="smallShadow" x="-15%" y="-15%" width="130%" height="130%"><feDropShadow dx="0" dy="7" stdDeviation="9" flood-color="#16324f" flood-opacity="0.08"/></filter>
  <marker id="arrow" markerWidth="18" markerHeight="18" refX="13" refY="5" orient="auto" markerUnits="strokeWidth"><path d="M0,0 L13,5 L0,10 Z" fill="#718197"/></marker>
  <style>
    text{font-family:'Hiragino Sans GB','PingFang SC','Arial Unicode MS','Noto Sans CJK SC',sans-serif;letter-spacing:0}
    .title{font-size:76px;font-weight:850}.subtitle{font-size:31px;font-weight:430}.sectionTitle{font-size:40px;font-weight:820}.sectionSub{font-size:25px;font-weight:430}
    .cardTitle{font-size:32px;font-weight:800}.body{font-size:24px;font-weight:410}.step{font-size:24px;font-weight:850}.badge{font-size:21px;font-weight:780}.edge{font-size:21px;font-weight:760}.pill{font-size:25px;font-weight:760}
    .tableHead{font-size:25px;font-weight:800}.tableCell{font-size:23px;font-weight:430}.tableCellBold{font-size:23px;font-weight:800}
    .laneNum{font-size:24px;font-weight:860}.laneTitle{font-size:28px;font-weight:810}.laneDesc{font-size:23px;font-weight:430}.note{font-size:24px;font-weight:430}
  </style>
</defs>
<rect width="5200" height="3600" fill="url(#bg)"/>
<text x="130" y="118" class="title" fill="#102033">注册 / 登录后的 Cognitive Walkthrough</text>
<text x="132" y="175" class="subtitle" fill="#5d6f85">v3 清晰版：改为编号泳道和决策表，去掉跨区斜线，突出用户登录后的主要路径</text>
<g><rect x="4070" y="76" width="900" height="70" rx="35" fill="#ffffff" stroke="#d7e3f1" stroke-width="2"/><text x="4520" y="121" text-anchor="middle" class="pill" fill="#174ea6">高分辨率 PNG：5200 × 3600</text></g>

<g><rect x="110" y="245" width="4980" height="610" rx="36" fill="#f7fbff" stroke="#d7e3f1" stroke-width="2"/><text x="152" y="315" class="sectionTitle" fill="#1d2b3a">1. 认证进入产品</text><text x="152" y="357" class="sectionSub" fill="#63748a">用户知道自己为什么来到登录页，以及成功后会去哪里</text></g>
<g><rect x="180" y="390" width="860" height="320" rx="24" fill="#fff" stroke="#cbd7e5" stroke-width="2" filter="url(#shadow)"/><rect x="180" y="390" width="860" height="10" rx="5" fill="#2563eb"/><circle cx="228" cy="448" r="28" fill="#2563eb" opacity="0.12"/><text x="228" y="458" text-anchor="middle" class="step" fill="#2563eb">1</text><text x="272" y="458" class="cardTitle" fill="#102033">访问入口</text><text x="220" y="502" class="body" fill="#4b5b70">• 访问 /project 或 /project/:id/*</text><text x="220" y="539" class="body" fill="#4b5b70">• 公开页可直接访问；受保护页进入 AuthGuard</text><text x="220" y="576" class="body" fill="#4b5b70">• 未通过认证前不展示业务内容</text></g>
<g><rect x="1130" y="390" width="860" height="320" rx="24" fill="#fff" stroke="#cbd7e5" stroke-width="2" filter="url(#shadow)"/><rect x="1130" y="390" width="860" height="10" rx="5" fill="#0f766e"/><circle cx="1178" cy="448" r="28" fill="#0f766e" opacity="0.12"/><text x="1178" y="458" text-anchor="middle" class="step" fill="#0f766e">2</text><text x="1222" y="458" class="cardTitle" fill="#102033">AuthGuard</text><text x="1170" y="502" class="body" fill="#4b5b70">• 等待 system ready / loading 完成</text><text x="1170" y="539" class="body" fill="#4b5b70">• 未登录：/login?returnUrl=当前路径</text><text x="1170" y="576" class="body" fill="#4b5b70">• 已登录：继续渲染目标页面</text></g>
<g><rect x="2080" y="390" width="860" height="320" rx="24" fill="#fff" stroke="#cbd7e5" stroke-width="2" filter="url(#shadow)"/><rect x="2080" y="390" width="860" height="10" rx="5" fill="#7c3aed"/><circle cx="2128" cy="448" r="28" fill="#7c3aed" opacity="0.12"/><text x="2128" y="458" text-anchor="middle" class="step" fill="#7c3aed">3</text><text x="2172" y="458" class="cardTitle" fill="#102033">登录 / 注册表单</text><text x="2120" y="502" class="body" fill="#4b5b70">• 登录：用户名或邮箱 + 密码</text><text x="2120" y="539" class="body" fill="#4b5b70">• 注册：密码确认 + 条款校验</text><text x="2120" y="576" class="body" fill="#4b5b70">• 注册成功后立即自动 login</text></g>
<g><rect x="3030" y="390" width="860" height="320" rx="24" fill="#fff" stroke="#cbd7e5" stroke-width="2" filter="url(#shadow)"/><rect x="3030" y="390" width="860" height="10" rx="5" fill="#0284c7"/><circle cx="3078" cy="448" r="28" fill="#0284c7" opacity="0.12"/><text x="3078" y="458" text-anchor="middle" class="step" fill="#0284c7">4</text><text x="3122" y="458" class="cardTitle" fill="#102033">成功反馈</text><text x="3070" y="502" class="body" fill="#4b5b70">• useLogin 写入 session / token</text><text x="3070" y="539" class="body" fill="#4b5b70">• toast 显示欢迎或注册成功</text><text x="3070" y="576" class="body" fill="#4b5b70">• 失败交给全局 HTTP 错误处理</text></g>
<g><rect x="3980" y="390" width="960" height="320" rx="24" fill="#fff" stroke="#cbd7e5" stroke-width="2" filter="url(#shadow)"/><rect x="3980" y="390" width="960" height="10" rx="5" fill="#16a34a"/><circle cx="4028" cy="448" r="28" fill="#16a34a" opacity="0.12"/><text x="4028" y="458" text-anchor="middle" class="step" fill="#16a34a">5</text><text x="4072" y="458" class="cardTitle" fill="#102033">跳转规则</text><text x="4020" y="502" class="body" fill="#4b5b70">• 优先回到 returnUrl</text><text x="4020" y="539" class="body" fill="#4b5b70">• 没有 returnUrl 时进入 /project</text><text x="4020" y="576" class="body" fill="#4b5b70">• authConfig.routes.afterLogin = /project</text></g>
<path d="M 1040 550 L 1130 550" stroke="#718197" stroke-width="4" stroke-linecap="round" fill="none" marker-end="url(#arrow)"/><path d="M 1990 550 L 2080 550" stroke="#718197" stroke-width="4" stroke-linecap="round" fill="none" marker-end="url(#arrow)"/><path d="M 2940 550 L 3030 550" stroke="#718197" stroke-width="4" stroke-linecap="round" fill="none" marker-end="url(#arrow)"/><path d="M 3890 550 L 3980 550" stroke="#718197" stroke-width="4" stroke-linecap="round" fill="none" marker-end="url(#arrow)"/>

<g><rect x="110" y="930" width="4980" height="735" rx="36" fill="#fbfff8" stroke="#d7e3f1" stroke-width="2"/><text x="152" y="1000" class="sectionTitle" fill="#1d2b3a">2. 项目 Dashboard 决策</text><text x="152" y="1042" class="sectionSub" fill="#63748a">用户登录后马上看见项目、邀请、起步动作，并进入项目工作区</text></g>
<g><rect x="180" y="1085" width="900" height="380" rx="24" fill="#fff" stroke="#cbd7e5" stroke-width="2" filter="url(#shadow)"/><rect x="180" y="1085" width="900" height="10" rx="5" fill="#16a34a"/><circle cx="228" cy="1143" r="28" fill="#16a34a" opacity="0.12"/><text x="228" y="1153" text-anchor="middle" class="step" fill="#16a34a">1</text><text x="272" y="1153" class="cardTitle" fill="#102033">Project Dashboard</text><text x="220" y="1197" class="body" fill="#4b5b70">• 默认登录落点：/project</text><text x="220" y="1234" class="body" fill="#4b5b70">• 展示项目数、活跃项目数、待处理邀请</text><text x="220" y="1271" class="body" fill="#4b5b70">• 支持搜索、排序、网格/列表</text><text x="220" y="1308" class="body" fill="#4b5b70">• 可创建、编辑、删除项目</text></g>
<g><rect x="1190" y="1085" width="1830" height="380" rx="24" fill="#fff" stroke="#cbd7e5" stroke-width="2" filter="url(#shadow)"/><rect x="1190" y="1085" width="1830" height="10" rx="5" fill="#16a34a"/><text x="1224" y="1147" class="cardTitle" fill="#102033">Dashboard 决策表</text><rect x="2840" y="1116" width="146" height="42" rx="21" fill="#16a34a" opacity="0.12"/><text x="2913" y="1145" text-anchor="middle" class="badge" fill="#16a34a">Decision</text></g><g><text x="1230" y="1195" class="tableHead" fill="#1f344a">场景</text><text x="1550" y="1195" class="tableHead" fill="#1f344a">用户动作</text><text x="2040" y="1195" class="tableHead" fill="#1f344a">系统结果</text><rect x="1218" y="1163" width="1774" height="70" rx="16" fill="#f7fbff"/><text x="1230" y="1203" class="tableCellBold" fill="#102033">有邀请</text><text x="1550" y="1203" class="tableCell" fill="#4b5b70">接受 / 拒绝</text><text x="2040" y="1203" class="tableCell" fill="#4b5b70">接受后进入邀请项目；拒绝后留在 Dashboard</text><rect x="1218" y="1241" width="1774" height="70" rx="16" fill="#fbfdff"/><text x="1230" y="1281" class="tableCellBold" fill="#102033">没有项目</text><text x="1550" y="1281" class="tableCell" fill="#4b5b70">创建项目 / Fork Demo</text><text x="2040" y="1281" class="tableCell" fill="#4b5b70">进入 API Specs；Demo 同时生成环境、规格、请求、测试用例</text><rect x="1218" y="1319" width="1774" height="70" rx="16" fill="#f7fbff"/><text x="1230" y="1359" class="tableCellBold" fill="#102033">已有项目</text><text x="1550" y="1359" class="tableCell" fill="#4b5b70">搜索、排序、选择项目</text><text x="2040" y="1359" class="tableCell" fill="#4b5b70">进入 /project/:id/api-specs，再切换工作区模块</text><rect x="1218" y="1397" width="1774" height="70" rx="16" fill="#fbfdff"/><text x="1230" y="1437" class="tableCellBold" fill="#102033">加载或失败</text><text x="1550" y="1437" class="tableCell" fill="#4b5b70">等待 / 查看错误提示</text><text x="2040" y="1437" class="tableCell" fill="#4b5b70">Skeleton、Alert、toast 负责反馈当前状态</text></g>
<g><rect x="3130" y="1085" width="850" height="380" rx="24" fill="#fff" stroke="#cbd7e5" stroke-width="2" filter="url(#shadow)"/><rect x="3130" y="1085" width="850" height="10" rx="5" fill="#2563eb"/><circle cx="3178" cy="1143" r="28" fill="#2563eb" opacity="0.12"/><text x="3178" y="1153" text-anchor="middle" class="step" fill="#2563eb">3</text><text x="3222" y="1153" class="cardTitle" fill="#102033">进入项目工作区</text><text x="3170" y="1197" class="body" fill="#4b5b70">• 创建、接受邀请、选择项目都会进入项目上下文</text><text x="3170" y="1234" class="body" fill="#4b5b70">• 项目根路径最终落到 API Specs</text><text x="3170" y="1271" class="body" fill="#4b5b70">• 后续通过侧边栏切换模块</text></g>
<g><rect x="4090" y="1085" width="850" height="380" rx="24" fill="#fff" stroke="#cbd7e5" stroke-width="2" filter="url(#shadow)"/><rect x="4090" y="1085" width="850" height="10" rx="5" fill="#64748b"/><circle cx="4138" cy="1143" r="28" fill="#64748b" opacity="0.12"/><text x="4138" y="1153" text-anchor="middle" class="step" fill="#64748b">4</text><text x="4182" y="1153" class="cardTitle" fill="#102033">辅助认知设施</text><text x="4130" y="1197" class="body" fill="#4b5b70">• 首次创建后触发 Onboarding Tour</text><text x="4130" y="1234" class="body" fill="#4b5b70">• Help Center 提供帮助入口</text><text x="4130" y="1271" class="body" fill="#4b5b70">• Cmd/Ctrl+K 打开 Command Palette</text><text x="4130" y="1308" class="body" fill="#4b5b70">• g+p 回项目列表，g+a 回 API Specs</text></g>
<path d="M 1080 1275 L 1190 1275" stroke="#718197" stroke-width="4" stroke-linecap="round" fill="none" marker-end="url(#arrow)"/><path d="M 3020 1275 L 3130 1275" stroke="#718197" stroke-width="4" stroke-linecap="round" fill="none" marker-end="url(#arrow)"/><path d="M 3980 1275 L 4090 1275" stroke="#718197" stroke-width="4" stroke-linecap="round" fill="none" marker-end="url(#arrow)"/>
<text x="180" y="1584" class="note" fill="#63748a">工作区 ready modules：</text>
<g><rect x="500" y="1530" width="520" height="70" rx="35" fill="#ffffff" stroke="#d7e3f1" stroke-width="2"/><text x="760" y="1575" text-anchor="middle" class="pill" fill="#059669">Collections / Request</text></g>
<g><rect x="1070" y="1530" width="390" height="70" rx="35" fill="#ffffff" stroke="#d7e3f1" stroke-width="2"/><text x="1265" y="1575" text-anchor="middle" class="pill" fill="#2563eb">API Specs</text></g>
<g><rect x="1510" y="1530" width="430" height="70" rx="35" fill="#ffffff" stroke="#d7e3f1" stroke-width="2"/><text x="1725" y="1575" text-anchor="middle" class="pill" fill="#0f766e">Environments</text></g>
<g><rect x="1990" y="1530" width="390" height="70" rx="35" fill="#ffffff" stroke="#d7e3f1" stroke-width="2"/><text x="2185" y="1575" text-anchor="middle" class="pill" fill="#7c3aed">Test Cases</text></g>
<g><rect x="2430" y="1530" width="330" height="70" rx="35" fill="#ffffff" stroke="#d7e3f1" stroke-width="2"/><text x="2595" y="1575" text-anchor="middle" class="pill" fill="#64748b">Members</text></g>
<g><rect x="2810" y="1530" width="350" height="70" rx="35" fill="#ffffff" stroke="#d7e3f1" stroke-width="2"/><text x="2985" y="1575" text-anchor="middle" class="pill" fill="#475569">Histories</text></g>
<g><rect x="3210" y="1530" width="300" height="70" rx="35" fill="#ffffff" stroke="#d7e3f1" stroke-width="2"/><text x="3360" y="1575" text-anchor="middle" class="pill" fill="#db2777">Flows</text></g>

<g><rect x="110" y="1745" width="2425" height="1120" rx="36" fill="#f4fffb" stroke="#d7e3f1" stroke-width="2"/><text x="152" y="1815" class="sectionTitle" fill="#1d2b3a">3A. API Request：单个接口调用链路</text><text x="152" y="1857" class="sectionSub" fill="#63748a">Request 的认知目标是跑通一个接口，并沉淀响应、示例和历史</text></g>
<g><rect x="2665" y="1745" width="2425" height="1120" rx="36" fill="#fff7fb" stroke="#d7e3f1" stroke-width="2"/><text x="2707" y="1815" class="sectionTitle" fill="#1d2b3a">3B. Request Flow：多请求业务流程链路</text><text x="2707" y="1857" class="sectionSub" fill="#63748a">Flow 的认知目标是把多个请求按业务顺序串起来验证</text></g>
<g><rect x="230" y="1900" width="2185" height="125" rx="22" fill="#ffffff" stroke="#cbd7e5" stroke-width="2" filter="url(#smallShadow)"/><circle cx="284" cy="1962.5" r="31" fill="#0f766e"/><text x="284" y="1972.5" text-anchor="middle" class="laneNum" fill="#fff">1</text><text x="335" y="1948" class="laneTitle" fill="#102033">Environment 提供运行上下文</text><text x="335" y="1986" class="laneDesc" fill="#5d6f85">base_url、variables、headers 会在发送前注入或替换请求内容</text></g>
<g><rect x="230" y="2070" width="2185" height="125" rx="22" fill="#ffffff" stroke="#cbd7e5" stroke-width="2" filter="url(#smallShadow)"/><circle cx="284" cy="2132.5" r="31" fill="#059669"/><text x="284" y="2142.5" text-anchor="middle" class="laneNum" fill="#fff">2</text><text x="335" y="2118" class="laneTitle" fill="#102033">Collections 存放请求资产</text><text x="335" y="2156" class="laneDesc" fill="#5d6f85">collection、folder、request、scratchpad；支持 Postman / Markdown 导入</text></g>
<g><rect x="230" y="2240" width="2185" height="125" rx="22" fill="#ffffff" stroke="#cbd7e5" stroke-width="2" filter="url(#smallShadow)"/><circle cx="284" cy="2302.5" r="31" fill="#059669"/><text x="284" y="2312.5" text-anchor="middle" class="laneNum" fill="#fff">3</text><text x="335" y="2288" class="laneTitle" fill="#102033">API Request 编辑器配置单个请求</text><text x="335" y="2326" class="laneDesc" fill="#5d6f85">method、url、params、auth、headers、body、scripts、settings、examples</text></g>
<g><rect x="230" y="2410" width="2185" height="125" rx="22" fill="#ffffff" stroke="#cbd7e5" stroke-width="2" filter="url(#smallShadow)"/><circle cx="284" cy="2472.5" r="31" fill="#0284c7"/><text x="284" y="2482.5" text-anchor="middle" class="laneNum" fill="#fff">4</text><text x="335" y="2458" class="laneTitle" fill="#102033">Send 执行请求</text><text x="335" y="2496" class="laneDesc" fill="#5d6f85">持久化请求会先保存，再 build executable URL，并由 local runner 执行</text></g>
<g><rect x="230" y="2580" width="2185" height="125" rx="22" fill="#ffffff" stroke="#cbd7e5" stroke-width="2" filter="url(#smallShadow)"/><circle cx="284" cy="2642.5" r="31" fill="#2563eb"/><text x="284" y="2652.5" text-anchor="middle" class="laneNum" fill="#fff">5</text><text x="335" y="2628" class="laneTitle" fill="#102033">响应面板与 Examples</text><text x="335" y="2666" class="laneDesc" fill="#5d6f85">展示 status、headers、body、duration、size；可保存 latest response 为 example</text></g>
<g><rect x="230" y="2750" width="2185" height="125" rx="22" fill="#ffffff" stroke="#cbd7e5" stroke-width="2" filter="url(#smallShadow)"/><circle cx="284" cy="2812.5" r="31" fill="#64748b"/><text x="284" y="2822.5" text-anchor="middle" class="laneNum" fill="#fff">6</text><text x="335" y="2798" class="laneTitle" fill="#102033">Histories 留下请求证据</text><text x="335" y="2836" class="laneDesc" fill="#5d6f85">已保存 request 的成功或失败执行会写入 cli_request history</text></g>
<path d="M 1322 2025 L 1322 2070" stroke="#718197" stroke-width="4" stroke-linecap="round" fill="none" marker-end="url(#arrow)"/><path d="M 1322 2195 L 1322 2240" stroke="#718197" stroke-width="4" stroke-linecap="round" fill="none" marker-end="url(#arrow)"/><path d="M 1322 2365 L 1322 2410" stroke="#718197" stroke-width="4" stroke-linecap="round" fill="none" marker-end="url(#arrow)"/><path d="M 1322 2535 L 1322 2580" stroke="#718197" stroke-width="4" stroke-linecap="round" fill="none" marker-end="url(#arrow)"/><path d="M 1322 2705 L 1322 2750" stroke="#718197" stroke-width="4" stroke-linecap="round" fill="none" marker-end="url(#arrow)"/>

<g><rect x="2785" y="1900" width="2185" height="125" rx="22" fill="#ffffff" stroke="#cbd7e5" stroke-width="2" filter="url(#smallShadow)"/><circle cx="2839" cy="1962.5" r="31" fill="#0f766e"/><text x="2839" y="1972.5" text-anchor="middle" class="laneNum" fill="#fff">1</text><text x="2890" y="1948" class="laneTitle" fill="#102033">Environment 选择 Flow 运行根地址</text><text x="2890" y="1986" class="laneDesc" fill="#5d6f85">运行时可选择带 base_url 的环境；也可以直接使用 step 自身 URL</text></g>
<g><rect x="2785" y="2070" width="2185" height="125" rx="22" fill="#ffffff" stroke="#cbd7e5" stroke-width="2" filter="url(#smallShadow)"/><circle cx="2839" cy="2132.5" r="31" fill="#db2777"/><text x="2839" y="2142.5" text-anchor="middle" class="laneNum" fill="#fff">2</text><text x="2890" y="2118" class="laneTitle" fill="#102033">Flow 画布创建业务流程</text><text x="2890" y="2156" class="laneDesc" fill="#5d6f85">创建 flow，拖拽 HTTP step 和 edge，保存名称、描述、位置</text></g>
<g><rect x="2785" y="2240" width="2185" height="125" rx="22" fill="#ffffff" stroke="#cbd7e5" stroke-width="2" filter="url(#smallShadow)"/><circle cx="2839" cy="2302.5" r="31" fill="#db2777"/><text x="2839" y="2312.5" text-anchor="middle" class="laneNum" fill="#fff">3</text><text x="2890" y="2288" class="laneTitle" fill="#102033">HTTP Step 定义每一步请求</text><text x="2890" y="2326" class="laneDesc" fill="#5d6f85">每个 step 自带 method、url、headers、body、captures、asserts</text></g>
<g><rect x="2785" y="2410" width="2185" height="125" rx="22" fill="#ffffff" stroke="#cbd7e5" stroke-width="2" filter="url(#smallShadow)"/><circle cx="2839" cy="2472.5" r="31" fill="#be185d"/><text x="2839" y="2482.5" text-anchor="middle" class="laneNum" fill="#fff">4</text><text x="2890" y="2458" class="laneTitle" fill="#102033">Captures + Edge Mappings 传递变量</text><text x="2890" y="2496" class="laneDesc" fill="#5d6f85">captures 从响应提取变量，edge mappings 把 source 传给 target</text></g>
<g><rect x="2785" y="2580" width="2185" height="125" rx="22" fill="#ffffff" stroke="#cbd7e5" stroke-width="2" filter="url(#smallShadow)"/><circle cx="2839" cy="2642.5" r="31" fill="#0284c7"/><text x="2839" y="2652.5" text-anchor="middle" class="laneNum" fill="#fff">5</text><text x="2890" y="2628" class="laneTitle" fill="#102033">Run Local / Run Server 执行流程</text><text x="2890" y="2666" class="laneDesc" fill="#5d6f85">Local 执行本地图；Server 创建 run 并通过 SSE 实时更新 step results</text></g>
<g><rect x="2785" y="2750" width="2185" height="125" rx="22" fill="#ffffff" stroke="#cbd7e5" stroke-width="2" filter="url(#smallShadow)"/><circle cx="2839" cy="2812.5" r="31" fill="#64748b"/><text x="2839" y="2822.5" text-anchor="middle" class="laneNum" fill="#fff">6</text><text x="2890" y="2798" class="laneTitle" fill="#102033">Flow History 回看端到端结果</text><text x="2890" y="2836" class="laneDesc" fill="#5d6f85">完成后写 flow history，记录环境、baseUrl、run 状态和步骤结果</text></g>
<path d="M 3878 2025 L 3878 2070" stroke="#718197" stroke-width="4" stroke-linecap="round" fill="none" marker-end="url(#arrow)"/><path d="M 3878 2195 L 3878 2240" stroke="#718197" stroke-width="4" stroke-linecap="round" fill="none" marker-end="url(#arrow)"/><path d="M 3878 2365 L 3878 2410" stroke="#718197" stroke-width="4" stroke-linecap="round" fill="none" marker-end="url(#arrow)"/><path d="M 3878 2535 L 3878 2580" stroke="#718197" stroke-width="4" stroke-linecap="round" fill="none" marker-end="url(#arrow)"/><path d="M 3878 2705 L 3878 2750" stroke="#718197" stroke-width="4" stroke-linecap="round" fill="none" marker-end="url(#arrow)"/>

<g><rect x="110" y="3005" width="4980" height="420" rx="36" fill="#fffdf6" stroke="#d7e3f1" stroke-width="2"/><text x="152" y="3075" class="sectionTitle" fill="#1d2b3a">4. 认知检查点</text><text x="152" y="3117" class="sectionSub" fill="#63748a">这些问题决定用户能不能顺利完成注册登录后的核心任务</text></g>
<g><rect x="210" y="3165" width="820" height="82" rx="41" fill="#ffffff" stroke="#d7e3f1" stroke-width="2"/><text x="620" y="3216" text-anchor="middle" class="pill" fill="#7a4b00">我在哪里？页面标题、模块导航、项目名</text></g>
<g><rect x="1090" y="3165" width="900" height="82" rx="41" fill="#ffffff" stroke="#d7e3f1" stroke-width="2"/><text x="1540" y="3216" text-anchor="middle" class="pill" fill="#7a4b00">下一步做什么？空状态、创建、Demo、发送、运行</text></g>
<g><rect x="2050" y="3165" width="980" height="82" rx="41" fill="#ffffff" stroke="#d7e3f1" stroke-width="2"/><text x="2540" y="3216" text-anchor="middle" class="pill" fill="#7a4b00">系统反馈是否清楚？loading、toast、response、history</text></g>
<g><rect x="3090" y="3165" width="780" height="82" rx="41" fill="#ffffff" stroke="#d7e3f1" stroke-width="2"/><text x="3480" y="3216" text-anchor="middle" class="pill" fill="#7a4b00">失败怎么办？校验、HTTP 错误、运行错误</text></g>
<g><rect x="3930" y="3165" width="980" height="82" rx="41" fill="#ffffff" stroke="#d7e3f1" stroke-width="2"/><text x="4420" y="3216" text-anchor="middle" class="pill" fill="#7a4b00">核心心智：Request 跑单点，Flow 验端到端业务</text></g>
<text x="130" y="3535" class="note" fill="#64748a">基于代码：AuthGuard、LoginForm、RegisterForm、ProjectDashboardPage、ProjectWorkspacePage、ApiRequestWorkbench、ProjectFlowManagementPage。</text>
</svg>