<?xml version="1.0" encoding="UTF-8"?>
<svg xmlns="http://www.w3.org/2000/svg" width="4200" height="3000" viewBox="0 0 4200 3000">
<defs>
  <linearGradient id="bg" x1="0" y1="0" x2="1" y2="1">
    <stop offset="0" stop-color="#f6fbff"/>
    <stop offset="0.55" stop-color="#ffffff"/>
    <stop offset="1" stop-color="#fffaf0"/>
  </linearGradient>
  <filter id="softShadow" x="-15%" y="-15%" width="130%" height="130%">
    <feDropShadow dx="0" dy="10" stdDeviation="12" flood-color="#15304a" flood-opacity="0.10"/>
  </filter>
  <marker id="arrow" markerWidth="16" markerHeight="16" refX="12" refY="5" orient="auto" markerUnits="strokeWidth">
    <path d="M0,0 L12,5 L0,10 Z" fill="#64748b"/>
  </marker>
  <style>
    text { font-family: 'Hiragino Sans GB', 'PingFang SC', 'Arial Unicode MS', 'Noto Sans CJK SC', sans-serif; letter-spacing: 0; }
    .title { font-size: 72px; font-weight: 850; }
    .subtitle { font-size: 31px; font-weight: 400; }
    .sectionTitle { font-size: 38px; font-weight: 800; }
    .sectionSub { font-size: 25px; font-weight: 420; }
    .cardTitle { font-size: 32px; font-weight: 790; }
    .cardBody { font-size: 24px; font-weight: 400; }
    .badge { font-size: 20px; font-weight: 760; }
    .pill { font-size: 25px; font-weight: 760; }
    .edgeLabel { font-size: 21px; font-weight: 760; }
    .mini { font-size: 24px; font-weight: 690; }
    .note { font-size: 24px; font-weight: 450; }
  </style>
</defs>
<rect width="4200" height="3000" fill="url(#bg)"/>
<text x="130" y="118" class="title" fill="#102033">注册 / 登录后的 Cognitive Walkthrough</text>
<text x="132" y="174" class="subtitle" fill="#5b6b80">清晰泳道版：认证进入产品、项目决策、工作区模块、API Request 与 Request Flow 的配合关系</text>
<g><rect x="3250" y="82" width="770" height="62" rx="31" fill="#eef6ff" stroke="#b9d9ff" stroke-width="2"/><text x="3635" y="123" text-anchor="middle" class="pill" fill="#174ea6">更高分辨率 PNG：4200 × 3000</text></g>


  <g>
    <rect x="110" y="240" width="3980" height="610" rx="34" fill="#f7fbff" stroke="#d8e2ee" stroke-width="2"/>
    <text x="148" y="302" class="sectionTitle" fill="#1d2b3a">1. 认证进入产品</text>
    <text x="148" y="340" class="sectionSub" fill="#64748b">目标：用户知道自己为什么来到登录页，成功后会去哪里</text>
  </g>

  <g>
    <rect x="110" y="910" width="3980" height="590" rx="34" fill="#fbfff8" stroke="#d8e2ee" stroke-width="2"/>
    <text x="148" y="972" class="sectionTitle" fill="#1d2b3a">2. 项目 Dashboard 决策</text>
    <text x="148" y="1010" class="sectionSub" fill="#64748b">目标：用户登录后马上看到项目、邀请和起步动作</text>
  </g>

  <g>
    <rect x="110" y="1560" width="1915" height="1030" rx="34" fill="#f5fffb" stroke="#d8e2ee" stroke-width="2"/>
    <text x="148" y="1622" class="sectionTitle" fill="#1d2b3a">3A. API Request：单个接口调用链路</text>
    <text x="148" y="1660" class="sectionSub" fill="#64748b">目标：快速跑通一个请求并保存可复用证据</text>
  </g>

  <g>
    <rect x="2175" y="1560" width="1915" height="1030" rx="34" fill="#fff8fb" stroke="#d8e2ee" stroke-width="2"/>
    <text x="2213" y="1622" class="sectionTitle" fill="#1d2b3a">3B. Request Flow：多请求业务流程链路</text>
    <text x="2213" y="1660" class="sectionSub" fill="#64748b">目标：把多个请求按业务顺序串起来验证</text>
  </g>

  <g>
    <rect x="110" y="2645" width="3980" height="230" rx="34" fill="#fffdf6" stroke="#d8e2ee" stroke-width="2"/>
    <text x="148" y="2707" class="sectionTitle" fill="#1d2b3a">4. 认知检查点</text>
    <text x="148" y="2745" class="sectionSub" fill="#64748b">这几个问题决定用户是否能顺利完成注册登录后的核心任务</text>
  </g>

<g id="protected"><rect x="170" y="355" width="560" height="310" rx="24" fill="#ffffff" stroke="#cbd5e1" stroke-width="2" filter="url(#softShadow)"/><rect x="170" y="355" width="560" height="10" rx="5" fill="#2563eb"/><rect x="574" y="380" width="126" height="38" rx="19" fill="#2563eb" opacity="0.12"/><text x="637" y="406" text-anchor="middle" class="badge" fill="#2563eb">Entry</text><text x="200" y="413" class="cardTitle" fill="#102033">访问受保护页面</text><text x="204" y="456" class="cardBody" fill="#48576b">• 用户访问 /project 或 /project/:id/*</text><text x="204" y="494" class="cardBody" fill="#48576b">• AuthGuard 检查系统 ready、loading、isAuthenticated</text><text x="204" y="532" class="cardBody" fill="#48576b">• 未登录时不渲染子页面</text></g>

<g id="guard"><rect x="850" y="355" width="560" height="310" rx="24" fill="#ffffff" stroke="#cbd5e1" stroke-width="2" filter="url(#softShadow)"/><rect x="850" y="355" width="560" height="10" rx="5" fill="#0f766e"/><rect x="1254" y="380" width="126" height="38" rx="19" fill="#0f766e" opacity="0.12"/><text x="1317" y="406" text-anchor="middle" class="badge" fill="#0f766e">Guard</text><text x="880" y="413" class="cardTitle" fill="#102033">AuthGuard 重定向</text><text x="884" y="456" class="cardBody" fill="#48576b">• 未登录：跳 /login?returnUrl=当前路径</text><text x="884" y="494" class="cardBody" fill="#48576b">• 已登录：直接渲染目标页面</text><text x="884" y="532" class="cardBody" fill="#48576b">• loading 状态显示 appLoading</text></g>

<g id="login"><rect x="1530" y="305" width="560" height="260" rx="24" fill="#ffffff" stroke="#cbd5e1" stroke-width="2" filter="url(#softShadow)"/><rect x="1530" y="305" width="560" height="10" rx="5" fill="#0284c7"/><rect x="1934" y="330" width="126" height="38" rx="19" fill="#0284c7" opacity="0.12"/><text x="1997" y="356" text-anchor="middle" class="badge" fill="#0284c7">Login</text><text x="1560" y="363" class="cardTitle" fill="#102033">登录</text><text x="1564" y="406" class="cardBody" fill="#48576b">• 用户名/邮箱 + 密码</text><text x="1564" y="444" class="cardBody" fill="#48576b">• useLogin 成功后写 session</text><text x="1564" y="482" class="cardBody" fill="#48576b">• toast 欢迎反馈</text></g>

<g id="register"><rect x="1530" y="615" width="560" height="260" rx="24" fill="#ffffff" stroke="#cbd5e1" stroke-width="2" filter="url(#softShadow)"/><rect x="1530" y="615" width="560" height="10" rx="5" fill="#7c3aed"/><rect x="1934" y="640" width="126" height="38" rx="19" fill="#7c3aed" opacity="0.12"/><text x="1997" y="666" text-anchor="middle" class="badge" fill="#7c3aed">Register</text><text x="1560" y="673" class="cardTitle" fill="#102033">注册</text><text x="1564" y="716" class="cardBody" fill="#48576b">• 校验密码确认和条款</text><text x="1564" y="754" class="cardBody" fill="#48576b">• register 成功后自动 login</text><text x="1564" y="792" class="cardBody" fill="#48576b">• 成功后保留 returnUrl 语义</text></g>

<g id="redirect"><rect x="2210" y="405" width="560" height="310" rx="24" fill="#ffffff" stroke="#cbd5e1" stroke-width="2" filter="url(#softShadow)"/><rect x="2210" y="405" width="560" height="10" rx="5" fill="#16a34a"/><rect x="2614" y="430" width="126" height="38" rx="19" fill="#16a34a" opacity="0.12"/><text x="2677" y="456" text-anchor="middle" class="badge" fill="#16a34a">Route</text><text x="2240" y="463" class="cardTitle" fill="#102033">成功后的跳转规则</text><text x="2244" y="506" class="cardBody" fill="#48576b">• 优先 router.replace(returnUrl)</text><text x="2244" y="544" class="cardBody" fill="#48576b">• 没有 returnUrl 时进入 /project</text><text x="2244" y="582" class="cardBody" fill="#48576b">• authConfig.routes.afterLogin = /project</text></g>

<g id="projectLanding"><rect x="2890" y="405" width="560" height="310" rx="24" fill="#ffffff" stroke="#cbd5e1" stroke-width="2" filter="url(#softShadow)"/><rect x="2890" y="405" width="560" height="10" rx="5" fill="#16a34a"/><rect x="3294" y="430" width="126" height="38" rx="19" fill="#16a34a" opacity="0.12"/><text x="3357" y="456" text-anchor="middle" class="badge" fill="#16a34a">/project</text><text x="2920" y="463" class="cardTitle" fill="#102033">项目 Dashboard</text><text x="2924" y="506" class="cardBody" fill="#48576b">• 注册/登录后的默认落点</text><text x="2924" y="544" class="cardBody" fill="#48576b">• 用户开始项目选择或创建</text><text x="2924" y="582" class="cardBody" fill="#48576b">• 从这里进入项目工作区</text></g>
<path d="M 730 510 L 850 510" fill="none" stroke="#64748b" stroke-width="4" stroke-linecap="round" marker-end="url(#arrow)"/><rect x="720" y="472" width="140" height="30" rx="15" fill="#ffffff" opacity="0.92"/><text x="790" y="494" text-anchor="middle" class="edgeLabel" fill="#64748b">检查</text>
<path d="M 1410 510 L 1530 435" fill="none" stroke="#64748b" stroke-width="4" stroke-linecap="round" marker-end="url(#arrow)"/><rect x="1400" y="434.5" width="140" height="30" rx="15" fill="#ffffff" opacity="0.92"/><text x="1470" y="456.5" text-anchor="middle" class="edgeLabel" fill="#64748b">登录</text>
<path d="M 1410 510 L 1530 745" fill="none" stroke="#64748b" stroke-width="4" stroke-linecap="round" marker-end="url(#arrow)"/><rect x="1400" y="589.5" width="140" height="30" rx="15" fill="#ffffff" opacity="0.92"/><text x="1470" y="611.5" text-anchor="middle" class="edgeLabel" fill="#64748b">注册</text>
<path d="M 2090 435 L 2210 500" fill="none" stroke="#64748b" stroke-width="4" stroke-linecap="round" marker-end="url(#arrow)"/><rect x="2080" y="429.5" width="140" height="30" rx="15" fill="#ffffff" opacity="0.92"/><text x="2150" y="451.5" text-anchor="middle" class="edgeLabel" fill="#64748b">成功</text>
<path d="M 2090 745 L 2210 585" fill="none" stroke="#64748b" stroke-width="4" stroke-linecap="round" marker-end="url(#arrow)"/><rect x="2080" y="627" width="140" height="30" rx="15" fill="#ffffff" opacity="0.92"/><text x="2150" y="649" text-anchor="middle" class="edgeLabel" fill="#64748b">自动登录</text>
<path d="M 2770 560 L 2890 560" fill="none" stroke="#64748b" stroke-width="4" stroke-linecap="round" marker-end="url(#arrow)"/><rect x="2760" y="522" width="140" height="30" rx="15" fill="#ffffff" opacity="0.92"/><text x="2830" y="544" text-anchor="middle" class="edgeLabel" fill="#64748b">进入</text>

<g id="dashboard"><rect x="170" y="1020" width="560" height="315" rx="24" fill="#ffffff" stroke="#cbd5e1" stroke-width="2" filter="url(#softShadow)"/><rect x="170" y="1020" width="560" height="10" rx="5" fill="#16a34a"/><rect x="574" y="1045" width="126" height="38" rx="19" fill="#16a34a" opacity="0.12"/><text x="637" y="1071" text-anchor="middle" class="badge" fill="#16a34a">Hub</text><text x="200" y="1078" class="cardTitle" fill="#102033">Dashboard 信息架构</text><text x="204" y="1121" class="cardBody" fill="#48576b">• 显示项目总数、活跃项目数</text><text x="204" y="1159" class="cardBody" fill="#48576b">• 待处理邀请面板</text><text x="204" y="1197" class="cardBody" fill="#48576b">• 搜索、排序、网格/列表</text><text x="204" y="1235" class="cardBody" fill="#48576b">• 创建、编辑、删除项目</text></g>

<g id="invite"><rect x="850" y="990" width="560" height="260" rx="24" fill="#ffffff" stroke="#cbd5e1" stroke-width="2" filter="url(#softShadow)"/><rect x="850" y="990" width="560" height="10" rx="5" fill="#0284c7"/><rect x="1254" y="1015" width="126" height="38" rx="19" fill="#0284c7" opacity="0.12"/><text x="1317" y="1041" text-anchor="middle" class="badge" fill="#0284c7">Invite</text><text x="880" y="1048" class="cardTitle" fill="#102033">有项目邀请</text><text x="884" y="1091" class="cardBody" fill="#48576b">• 接受：跳 result.redirect_to 或 API Specs</text><text x="884" y="1129" class="cardBody" fill="#48576b">• 拒绝：停留在项目 Dashboard</text><text x="884" y="1167" class="cardBody" fill="#48576b">• 加载失败有 Alert 反馈</text></g>

<g id="emptyProject"><rect x="850" y="1280" width="560" height="260" rx="24" fill="#ffffff" stroke="#cbd5e1" stroke-width="2" filter="url(#softShadow)"/><rect x="850" y="1280" width="560" height="10" rx="5" fill="#d97706"/><rect x="1254" y="1305" width="126" height="38" rx="19" fill="#d97706" opacity="0.12"/><text x="1317" y="1331" text-anchor="middle" class="badge" fill="#d97706">Empty</text><text x="880" y="1338" class="cardTitle" fill="#102033">没有项目</text><text x="884" y="1381" class="cardBody" fill="#48576b">• 空状态告诉用户可以创建项目</text><text x="884" y="1419" class="cardBody" fill="#48576b">• 也可以 Fork Demo 项目</text><text x="884" y="1457" class="cardBody" fill="#48576b">• Import Project 当前是 disabled</text></g>

<g id="createProject"><rect x="1530" y="1075" width="560" height="300" rx="24" fill="#ffffff" stroke="#cbd5e1" stroke-width="2" filter="url(#softShadow)"/><rect x="1530" y="1075" width="560" height="10" rx="5" fill="#ca8a04"/><rect x="1934" y="1100" width="126" height="38" rx="19" fill="#ca8a04" opacity="0.12"/><text x="1997" y="1126" text-anchor="middle" class="badge" fill="#ca8a04">Start</text><text x="1560" y="1133" class="cardTitle" fill="#102033">创建 / Fork Demo</text><text x="1564" y="1176" class="cardBody" fill="#48576b">• 创建普通项目后进入 API Specs</text><text x="1564" y="1214" class="cardBody" fill="#48576b">• Demo 会创建 environment、API specs、requests、test</text><text x="1564" y="1246" class="cardBody" fill="#48576b">   case</text><text x="1564" y="1284" class="cardBody" fill="#48576b">• markFirstProjectCreated 触发引导</text></g>

<g id="projectList"><rect x="2210" y="1075" width="560" height="300" rx="24" fill="#ffffff" stroke="#cbd5e1" stroke-width="2" filter="url(#softShadow)"/><rect x="2210" y="1075" width="560" height="10" rx="5" fill="#475569"/><rect x="2614" y="1100" width="126" height="38" rx="19" fill="#475569" opacity="0.12"/><text x="2677" y="1126" text-anchor="middle" class="badge" fill="#475569">Existing</text><text x="2240" y="1133" class="cardTitle" fill="#102033">已有项目列表</text><text x="2244" y="1176" class="cardBody" fill="#48576b">• 点击项目卡片进入项目</text><text x="2244" y="1214" class="cardBody" fill="#48576b">• 可编辑或删除项目</text><text x="2244" y="1252" class="cardBody" fill="#48576b">• 搜索没有结果时显示 matched empty state</text></g>

<g id="workspace"><rect x="2890" y="1040" width="560" height="350" rx="24" fill="#ffffff" stroke="#cbd5e1" stroke-width="2" filter="url(#softShadow)"/><rect x="2890" y="1040" width="560" height="10" rx="5" fill="#2563eb"/><rect x="3294" y="1065" width="126" height="38" rx="19" fill="#2563eb" opacity="0.12"/><text x="3357" y="1091" text-anchor="middle" class="badge" fill="#2563eb">Workspace</text><text x="2920" y="1098" class="cardTitle" fill="#102033">项目工作区</text><text x="2924" y="1141" class="cardBody" fill="#48576b">• /project/:id 默认重定向 API Specs</text><text x="2924" y="1179" class="cardBody" fill="#48576b">• 项目侧边栏显示 ready modules</text><text x="2924" y="1217" class="cardBody" fill="#48576b">• Onboarding Tour / Help / Command Palette</text><text x="2924" y="1255" class="cardBody" fill="#48576b">• 快捷键 g+p、g+a 提供快速回路</text></g>
<path d="M 730 1175 L 850 1120" fill="none" stroke="#64748b" stroke-width="4" stroke-linecap="round" marker-end="url(#arrow)"/><rect x="720" y="1109.5" width="140" height="30" rx="15" fill="#ffffff" opacity="0.92"/><text x="790" y="1131.5" text-anchor="middle" class="edgeLabel" fill="#64748b">邀请</text>
<path d="M 730 1175 L 850 1410" fill="none" stroke="#64748b" stroke-width="4" stroke-linecap="round" marker-end="url(#arrow)"/><rect x="720" y="1254.5" width="140" height="30" rx="15" fill="#ffffff" opacity="0.92"/><text x="790" y="1276.5" text-anchor="middle" class="edgeLabel" fill="#64748b">空项目</text>
<path d="M 1410 1410 L 1530 1245" fill="none" stroke="#64748b" stroke-width="4" stroke-linecap="round" marker-end="url(#arrow)"/><rect x="1400" y="1289.5" width="140" height="30" rx="15" fill="#ffffff" opacity="0.92"/><text x="1470" y="1311.5" text-anchor="middle" class="edgeLabel" fill="#64748b">创建</text>
<path d="M 1410 1120 L 2890 1175" fill="none" stroke="#64748b" stroke-width="4" stroke-linecap="round" marker-end="url(#arrow)"/><rect x="2080" y="1109.5" width="140" height="30" rx="15" fill="#ffffff" opacity="0.92"/><text x="2150" y="1131.5" text-anchor="middle" class="edgeLabel" fill="#64748b">接受后进入</text>
<path d="M 2090 1245 L 2890 1215" fill="none" stroke="#64748b" stroke-width="4" stroke-linecap="round" marker-end="url(#arrow)"/><rect x="2420" y="1192" width="140" height="30" rx="15" fill="#ffffff" opacity="0.92"/><text x="2490" y="1214" text-anchor="middle" class="edgeLabel" fill="#64748b">创建完成</text>
<path d="M 2770 1225 L 2890 1225" fill="none" stroke="#64748b" stroke-width="4" stroke-linecap="round" marker-end="url(#arrow)"/><rect x="2760" y="1187" width="140" height="30" rx="15" fill="#ffffff" opacity="0.92"/><text x="2830" y="1209" text-anchor="middle" class="edgeLabel" fill="#64748b">选择项目</text>
<g><rect x="410" y="1470" width="430" height="78" rx="18" fill="#ffffff" stroke="#dbe4ef" stroke-width="2"/><text x="625" y="1518" text-anchor="middle" class="mini" fill="#059669">Collections / Request</text></g>
<g><rect x="910" y="1470" width="430" height="78" rx="18" fill="#ffffff" stroke="#dbe4ef" stroke-width="2"/><text x="1125" y="1518" text-anchor="middle" class="mini" fill="#2563eb">API Specs</text></g>
<g><rect x="1410" y="1470" width="430" height="78" rx="18" fill="#ffffff" stroke="#dbe4ef" stroke-width="2"/><text x="1625" y="1518" text-anchor="middle" class="mini" fill="#0f766e">Environments</text></g>
<g><rect x="1910" y="1470" width="430" height="78" rx="18" fill="#ffffff" stroke="#dbe4ef" stroke-width="2"/><text x="2125" y="1518" text-anchor="middle" class="mini" fill="#7c3aed">Test Cases</text></g>
<g><rect x="2410" y="1470" width="430" height="78" rx="18" fill="#ffffff" stroke="#dbe4ef" stroke-width="2"/><text x="2625" y="1518" text-anchor="middle" class="mini" fill="#64748b">Members</text></g>
<g><rect x="2910" y="1470" width="430" height="78" rx="18" fill="#ffffff" stroke="#dbe4ef" stroke-width="2"/><text x="3125" y="1518" text-anchor="middle" class="mini" fill="#475569">Histories</text></g>
<g><rect x="3410" y="1470" width="430" height="78" rx="18" fill="#ffffff" stroke="#dbe4ef" stroke-width="2"/><text x="3625" y="1518" text-anchor="middle" class="mini" fill="#db2777">Flows</text></g>
<text x="170" y="1518" class="note" fill="#64748b">工作区模块：</text>

<g id="envA"><rect x="170" y="1710" width="500" height="250" rx="24" fill="#ffffff" stroke="#cbd5e1" stroke-width="2" filter="url(#softShadow)"/><rect x="170" y="1710" width="500" height="10" rx="5" fill="#0f766e"/><rect x="514" y="1735" width="126" height="38" rx="19" fill="#0f766e" opacity="0.12"/><text x="577" y="1761" text-anchor="middle" class="badge" fill="#0f766e">Context</text><text x="200" y="1768" class="cardTitle" fill="#102033">Environment</text><text x="204" y="1811" class="cardBody" fill="#48576b">• base_url</text><text x="204" y="1849" class="cardBody" fill="#48576b">• variables</text><text x="204" y="1887" class="cardBody" fill="#48576b">• headers</text><text x="204" y="1925" class="cardBody" fill="#48576b">• 执行前注入请求上下文</text></g>

<g id="collectionA"><rect x="790" y="1710" width="500" height="250" rx="24" fill="#ffffff" stroke="#cbd5e1" stroke-width="2" filter="url(#softShadow)"/><rect x="790" y="1710" width="500" height="10" rx="5" fill="#059669"/><rect x="1134" y="1735" width="126" height="38" rx="19" fill="#059669" opacity="0.12"/><text x="1197" y="1761" text-anchor="middle" class="badge" fill="#059669">Store</text><text x="820" y="1768" class="cardTitle" fill="#102033">Collections</text><text x="824" y="1811" class="cardBody" fill="#48576b">• collection / folder / request</text><text x="824" y="1849" class="cardBody" fill="#48576b">• 支持导入 Postman 或 Markdown</text><text x="824" y="1887" class="cardBody" fill="#48576b">• 也可创建 scratchpad 请求</text></g>

<g id="requestA"><rect x="1410" y="1710" width="500" height="250" rx="24" fill="#ffffff" stroke="#cbd5e1" stroke-width="2" filter="url(#softShadow)"/><rect x="1410" y="1710" width="500" height="10" rx="5" fill="#059669"/><rect x="1754" y="1735" width="126" height="38" rx="19" fill="#059669" opacity="0.12"/><text x="1817" y="1761" text-anchor="middle" class="badge" fill="#059669">Edit</text><text x="1440" y="1768" class="cardTitle" fill="#102033">API Request 编辑器</text><text x="1444" y="1811" class="cardBody" fill="#48576b">• method、url、params</text><text x="1444" y="1849" class="cardBody" fill="#48576b">• auth、headers、body</text><text x="1444" y="1887" class="cardBody" fill="#48576b">• scripts、settings、examples</text></g>

<g id="runA"><rect x="170" y="2085" width="500" height="250" rx="24" fill="#ffffff" stroke="#cbd5e1" stroke-width="2" filter="url(#softShadow)"/><rect x="170" y="2085" width="500" height="10" rx="5" fill="#0284c7"/><rect x="514" y="2110" width="126" height="38" rx="19" fill="#0284c7" opacity="0.12"/><text x="577" y="2136" text-anchor="middle" class="badge" fill="#0284c7">Run</text><text x="200" y="2143" class="cardTitle" fill="#102033">发送请求</text><text x="204" y="2186" class="cardBody" fill="#48576b">• 先保存持久化 request</text><text x="204" y="2224" class="cardBody" fill="#48576b">• buildExecutableRequestUrl</text><text x="204" y="2262" class="cardBody" fill="#48576b">• localRunnerService.execute</text></g>

<g id="responseA"><rect x="790" y="2085" width="500" height="250" rx="24" fill="#ffffff" stroke="#cbd5e1" stroke-width="2" filter="url(#softShadow)"/><rect x="790" y="2085" width="500" height="10" rx="5" fill="#2563eb"/><rect x="1134" y="2110" width="126" height="38" rx="19" fill="#2563eb" opacity="0.12"/><text x="1197" y="2136" text-anchor="middle" class="badge" fill="#2563eb">Result</text><text x="820" y="2143" class="cardTitle" fill="#102033">响应与示例</text><text x="824" y="2186" class="cardBody" fill="#48576b">• status / headers / body</text><text x="824" y="2224" class="cardBody" fill="#48576b">• duration / size</text><text x="824" y="2262" class="cardBody" fill="#48576b">• 可保存 latest response 为 example</text></g>

<g id="historyA"><rect x="1410" y="2085" width="500" height="250" rx="24" fill="#ffffff" stroke="#cbd5e1" stroke-width="2" filter="url(#softShadow)"/><rect x="1410" y="2085" width="500" height="10" rx="5" fill="#64748b"/><rect x="1754" y="2110" width="126" height="38" rx="19" fill="#64748b" opacity="0.12"/><text x="1817" y="2136" text-anchor="middle" class="badge" fill="#64748b">Trace</text><text x="1440" y="2143" class="cardTitle" fill="#102033">Histories</text><text x="1444" y="2186" class="cardBody" fill="#48576b">• 已保存 request 执行后写入</text><text x="1444" y="2224" class="cardBody" fill="#48576b">• 成功：cli_request run</text><text x="1444" y="2262" class="cardBody" fill="#48576b">• 失败：cli_request run_failed</text></g>
<path d="M 670 1835 L 790 1835" fill="none" stroke="#64748b" stroke-width="4" stroke-linecap="round" marker-end="url(#arrow)"/><rect x="660" y="1797" width="140" height="30" rx="15" fill="#ffffff" opacity="0.92"/><text x="730" y="1819" text-anchor="middle" class="edgeLabel" fill="#64748b">提供上下文</text>
<path d="M 1290 1835 L 1410 1835" fill="none" stroke="#64748b" stroke-width="4" stroke-linecap="round" marker-end="url(#arrow)"/><rect x="1280" y="1797" width="140" height="30" rx="15" fill="#ffffff" opacity="0.92"/><text x="1350" y="1819" text-anchor="middle" class="edgeLabel" fill="#64748b">选择请求</text>
<path d="M 1660 1960 L 1660 2030 L 420 2030 L 420 2085" fill="none" stroke="#64748b" stroke-width="4" stroke-linecap="round" stroke-linejoin="round" marker-end="url(#arrow)"/><rect x="338" y="1984" width="164" height="32" rx="16" fill="#ffffff" opacity="0.94"/><text x="420" y="2007" text-anchor="middle" class="edgeLabel" fill="#64748b">Send</text>
<path d="M 670 2210 L 790 2210" fill="none" stroke="#64748b" stroke-width="4" stroke-linecap="round" marker-end="url(#arrow)"/><rect x="660" y="2172" width="140" height="30" rx="15" fill="#ffffff" opacity="0.92"/><text x="730" y="2194" text-anchor="middle" class="edgeLabel" fill="#64748b">响应</text>
<path d="M 1290 2210 L 1410 2210" fill="none" stroke="#64748b" stroke-width="4" stroke-linecap="round" marker-end="url(#arrow)"/><rect x="1280" y="2172" width="140" height="30" rx="15" fill="#ffffff" opacity="0.92"/><text x="1350" y="2194" text-anchor="middle" class="edgeLabel" fill="#64748b">记录</text>

<g id="envB"><rect x="2235" y="1710" width="500" height="250" rx="24" fill="#ffffff" stroke="#cbd5e1" stroke-width="2" filter="url(#softShadow)"/><rect x="2235" y="1710" width="500" height="10" rx="5" fill="#0f766e"/><rect x="2579" y="1735" width="126" height="38" rx="19" fill="#0f766e" opacity="0.12"/><text x="2642" y="1761" text-anchor="middle" class="badge" fill="#0f766e">Context</text><text x="2265" y="1768" class="cardTitle" fill="#102033">Environment</text><text x="2269" y="1811" class="cardBody" fill="#48576b">• 运行时选择带 base_url 的环境</text><text x="2269" y="1849" class="cardBody" fill="#48576b">• base_url 作为 Flow 执行根地址</text><text x="2269" y="1887" class="cardBody" fill="#48576b">• 无环境也可使用 step 自身 URL</text></g>

<g id="flowCanvas"><rect x="2855" y="1710" width="500" height="250" rx="24" fill="#ffffff" stroke="#cbd5e1" stroke-width="2" filter="url(#softShadow)"/><rect x="2855" y="1710" width="500" height="10" rx="5" fill="#db2777"/><rect x="3199" y="1735" width="126" height="38" rx="19" fill="#db2777" opacity="0.12"/><text x="3262" y="1761" text-anchor="middle" class="badge" fill="#db2777">Canvas</text><text x="2885" y="1768" class="cardTitle" fill="#102033">Flow 画布</text><text x="2889" y="1811" class="cardBody" fill="#48576b">• 创建 flow</text><text x="2889" y="1849" class="cardBody" fill="#48576b">• 拖拽 node 和 edge</text><text x="2889" y="1887" class="cardBody" fill="#48576b">• 保存 name、description、布局</text></g>

<g id="flowStep"><rect x="3475" y="1710" width="500" height="250" rx="24" fill="#ffffff" stroke="#cbd5e1" stroke-width="2" filter="url(#softShadow)"/><rect x="3475" y="1710" width="500" height="10" rx="5" fill="#db2777"/><rect x="3819" y="1735" width="126" height="38" rx="19" fill="#db2777" opacity="0.12"/><text x="3882" y="1761" text-anchor="middle" class="badge" fill="#db2777">Step</text><text x="3505" y="1768" class="cardTitle" fill="#102033">HTTP Step</text><text x="3509" y="1811" class="cardBody" fill="#48576b">• 每个 step 有 method、url</text><text x="3509" y="1849" class="cardBody" fill="#48576b">• headers、body</text><text x="3509" y="1887" class="cardBody" fill="#48576b">• captures、asserts</text></g>

<g id="mappingB"><rect x="2235" y="2085" width="500" height="250" rx="24" fill="#ffffff" stroke="#cbd5e1" stroke-width="2" filter="url(#softShadow)"/><rect x="2235" y="2085" width="500" height="10" rx="5" fill="#be185d"/><rect x="2579" y="2110" width="126" height="38" rx="19" fill="#be185d" opacity="0.12"/><text x="2642" y="2136" text-anchor="middle" class="badge" fill="#be185d">Mapping</text><text x="2265" y="2143" class="cardTitle" fill="#102033">变量传递</text><text x="2269" y="2186" class="cardBody" fill="#48576b">• captures 从响应提取变量</text><text x="2269" y="2224" class="cardBody" fill="#48576b">• edge mappings：source -&gt; target</text><text x="2269" y="2262" class="cardBody" fill="#48576b">• 后续 step 复用上游结果</text></g>

<g id="runB"><rect x="2855" y="2085" width="500" height="250" rx="24" fill="#ffffff" stroke="#cbd5e1" stroke-width="2" filter="url(#softShadow)"/><rect x="2855" y="2085" width="500" height="10" rx="5" fill="#0284c7"/><rect x="3199" y="2110" width="126" height="38" rx="19" fill="#0284c7" opacity="0.12"/><text x="3262" y="2136" text-anchor="middle" class="badge" fill="#0284c7">Run</text><text x="2885" y="2143" class="cardTitle" fill="#102033">运行 Flow</text><text x="2889" y="2186" class="cardBody" fill="#48576b">• Run Local：本地执行图</text><text x="2889" y="2224" class="cardBody" fill="#48576b">• Run Server：服务端 run + SSE stream</text><text x="2889" y="2262" class="cardBody" fill="#48576b">• 实时更新 step results</text></g>

<g id="historyB"><rect x="3475" y="2085" width="500" height="250" rx="24" fill="#ffffff" stroke="#cbd5e1" stroke-width="2" filter="url(#softShadow)"/><rect x="3475" y="2085" width="500" height="10" rx="5" fill="#64748b"/><rect x="3819" y="2110" width="126" height="38" rx="19" fill="#64748b" opacity="0.12"/><text x="3882" y="2136" text-anchor="middle" class="badge" fill="#64748b">Trace</text><text x="3505" y="2143" class="cardTitle" fill="#102033">Flow History</text><text x="3509" y="2186" class="cardBody" fill="#48576b">• 完成后写 flow history</text><text x="3509" y="2224" class="cardBody" fill="#48576b">• 记录环境、baseUrl、run 状态</text><text x="3509" y="2262" class="cardBody" fill="#48576b">• 可从 Histories 回看流程结果</text></g>
<path d="M 2735 1835 L 2855 1835" fill="none" stroke="#64748b" stroke-width="4" stroke-linecap="round" marker-end="url(#arrow)"/><rect x="2725" y="1797" width="140" height="30" rx="15" fill="#ffffff" opacity="0.92"/><text x="2795" y="1819" text-anchor="middle" class="edgeLabel" fill="#64748b">选择环境</text>
<path d="M 3355 1835 L 3475 1835" fill="none" stroke="#64748b" stroke-width="4" stroke-linecap="round" marker-end="url(#arrow)"/><rect x="3345" y="1797" width="140" height="30" rx="15" fill="#ffffff" opacity="0.92"/><text x="3415" y="1819" text-anchor="middle" class="edgeLabel" fill="#64748b">编辑步骤</text>
<path d="M 3725 1960 L 3725 2030 L 2485 2030 L 2485 2085" fill="none" stroke="#64748b" stroke-width="4" stroke-linecap="round" stroke-linejoin="round" marker-end="url(#arrow)"/><rect x="2403" y="1984" width="164" height="32" rx="16" fill="#ffffff" opacity="0.94"/><text x="2485" y="2007" text-anchor="middle" class="edgeLabel" fill="#64748b">capture</text>
<path d="M 2735 2210 L 2855 2210" fill="none" stroke="#64748b" stroke-width="4" stroke-linecap="round" marker-end="url(#arrow)"/><rect x="2725" y="2172" width="140" height="30" rx="15" fill="#ffffff" opacity="0.92"/><text x="2795" y="2194" text-anchor="middle" class="edgeLabel" fill="#64748b">变量进入执行</text>
<path d="M 3355 2210 L 3475 2210" fill="none" stroke="#64748b" stroke-width="4" stroke-linecap="round" marker-end="url(#arrow)"/><rect x="3345" y="2172" width="140" height="30" rx="15" fill="#ffffff" opacity="0.92"/><text x="3415" y="2194" text-anchor="middle" class="edgeLabel" fill="#64748b">完成记录</text>

<g>
  <rect x="1962" y="1865" width="270" height="310" rx="24" fill="#ffffff" stroke="#d8e2ee" stroke-width="2" filter="url(#softShadow)"/>
  <text x="2097" y="1932" text-anchor="middle" class="cardTitle" fill="#102033">关系</text>
  <text x="2097" y="1984" text-anchor="middle" class="mini" fill="#475569">Request</text>
  <text x="2097" y="2022" text-anchor="middle" class="mini" fill="#475569">验证单接口</text>
  <path d="M2028 2055 L2166 2055" stroke="#cbd5e1" stroke-width="2"/>
  <text x="2097" y="2108" text-anchor="middle" class="mini" fill="#475569">Flow</text>
  <text x="2097" y="2146" text-anchor="middle" class="mini" fill="#475569">编排多接口</text>
</g>
<g><rect x="210" y="2740" width="650" height="86" rx="18" fill="#ffffff" stroke="#ead7a1" stroke-width="2"/><text x="535" y="2792" text-anchor="middle" class="mini" fill="#7a4b00">我在哪里？页面标题、模块导航、项目名</text></g>
<g><rect x="930" y="2740" width="650" height="86" rx="18" fill="#ffffff" stroke="#ead7a1" stroke-width="2"/><text x="1255" y="2792" text-anchor="middle" class="mini" fill="#7a4b00">下一步做什么？空状态、创建、Demo、发送、运行</text></g>
<g><rect x="1650" y="2740" width="650" height="86" rx="18" fill="#ffffff" stroke="#ead7a1" stroke-width="2"/><text x="1975" y="2792" text-anchor="middle" class="mini" fill="#7a4b00">系统反馈是否清楚？loading、toast、response、history</text></g>
<g><rect x="2370" y="2740" width="650" height="86" rx="18" fill="#ffffff" stroke="#ead7a1" stroke-width="2"/><text x="2695" y="2792" text-anchor="middle" class="mini" fill="#7a4b00">失败怎么办？校验、HTTP 错误、运行错误</text></g>
<g><rect x="3090" y="2740" width="880" height="86" rx="18" fill="#ffffff" stroke="#ead7a1" stroke-width="2"/><text x="3530" y="2792" text-anchor="middle" class="mini" fill="#7a4b00">核心心智：Request 跑通单点，Flow 验证端到端业务</text></g>

<text x="130" y="2945" class="note" fill="#64748b">基于代码：AuthGuard、LoginForm、RegisterForm、ProjectDashboardPage、ProjectWorkspacePage、ApiRequestWorkbench、ProjectFlowManagementPage。</text>
</svg>